<svg xmlns="http://www.w3.org/2000/svg" viewBox="0 0 64 64" aria-hidden="true">
  <title>Bolt the Bird</title>
  <!-- Bird silhouette in flight -->
  <path
    fill="var(--color-accent, currentColor)"
    d="M58 22c-2 .2-4 .9-5.6 2.1A14 14 0 0 0 39 18c-6.4 0-11.9 3.7-14.1 9L8 30c-.9.2-1.4 1-1 1.7l3 6.5c.4.7 1.4.8 2 .2l4-3.7c.6 4 3.2 7.4 6.9 9l-3 8.4c-.4 1.2.7 2.3 1.9 1.8l9.6-4.3a14 14 0 0 0 14.6-3.1c1.2 1.5 3 2.5 5 2.7.8.1 1.4-.6 1.2-1.4l-1.4-4.4c2.1-1.6 3.7-3.7 4.7-6.2.7-1.7-.6-3.5-2.3-3.2-1 .2-1.9.6-2.7 1.2.4-1.5.5-3.1.3-4.6.7.2 1.4.3 2.2.3 1.5 0 2.9-.5 4-1.4.7-.5.6-1.6-.1-2.1-1-.7-2.2-1-3.4-1Z"
  />
  <!-- Eye highlight (cuts the bird) -->
  <circle cx="48" cy="28" r="1.6" fill="var(--color-bg, #ffffff)" />
  <!-- Lightning bolt tail piercing across the bird -->
  <path
    fill="var(--color-accent, currentColor)"
    d="M22 36 4 54h11l-3 9 17-18H19l3-9Z"
  />
</svg>
